<svg width="46" height="43" viewBox="0 0 46 51" fill="none" xmlns="http://www.w3.org/2000/svg">
<path d="M41.2619 13.9994C41.2619 13.4381 41.0607 12.8999 40.7026 12.503C40.3446 12.106 39.8592 11.8829 39.3529 11.8829L12.6269 11.8829C12.1206 11.8829 11.6352 12.106 11.2772 12.503C10.9192 12.8999 10.7179 13.4381 10.7179 13.9994L10.7179 42.754L15.0952 37.901L15.235 37.7605C15.5747 37.4517 16.0018 37.2809 16.4449 37.2809L39.3529 37.2809C39.8592 37.2809 40.3446 37.0578 40.7026 36.6608C41.0607 36.2639 41.2619 35.7257 41.2619 35.1644L41.2619 13.9994ZM45.0799 35.1644C45.0799 36.8485 44.4761 38.463 43.4021 39.6537C42.3281 40.8445 40.8719 41.5139 39.3529 41.5139L17.2353 41.5139L10.1586 49.3598C9.61265 49.9651 8.79145 50.1463 8.07812 49.8186C7.36492 49.491 6.8999 48.7193 6.8999 47.8634L6.8999 13.9994C6.8999 12.3154 7.50372 10.7009 8.57774 9.51012C9.65176 8.31935 11.108 7.6499 12.6269 7.6499L39.3529 7.6499C40.8717 7.6499 42.3281 8.31935 43.4021 9.51012C44.4761 10.7009 45.0799 12.3154 45.0799 13.9994L45.0799 35.1644Z" fill="#171A1F"/>
</svg>
