<svg width="46" height="43" viewBox="0 0 46 43" fill="none" xmlns="http://www.w3.org/2000/svg">
<path d="M36.363 10.7921C31.9351 10.7921 26.7619 8.40698 23.2108 5.51007C23.152 5.46314 23.0773 5.43862 23 5.43862C22.9227 5.43862 22.848 5.46489 22.7892 5.51182L22.7875 5.51007C19.3674 8.29743 14.3891 10.6414 10.0546 10.7852L9.637 10.7921L9.637 23.2837L9.65378 24.0191C9.82374 27.6334 11.253 30.3126 13.4289 32.396C15.5053 34.384 18.3288 35.8903 21.5757 37.0664L22.9926 37.5509L23.0355 37.5631C26.8631 36.3145 30.2023 34.6715 32.5712 32.3996C34.8912 30.1745 36.363 27.2735 36.363 23.2837L36.363 10.7921ZM40.181 23.2837C40.181 28.2162 38.3121 32.0086 35.306 34.8917C32.3518 37.7247 28.3841 39.6022 24.2769 40.9404L24.262 40.9456C23.4448 41.2045 22.5586 41.1952 21.7473 40.9229C21.736 40.9194 21.725 40.9161 21.7137 40.9126C21.7107 40.9115 21.7072 40.9119 21.7044 40.9108V40.909C17.6014 39.5804 13.6451 37.7115 10.6978 34.8899C7.87656 32.1889 6.05795 28.6877 5.84137 24.1968L5.819 23.2837L5.819 10.7921C5.81923 9.84586 6.22174 8.93787 6.93756 8.26873C7.65353 7.59967 8.6246 7.22312 9.637 7.22312L10.2503 7.20221C13.3757 6.98714 17.3752 5.1934 20.293 2.81068L20.3098 2.79847L20.5989 2.58587C21.2976 2.12133 22.1366 1.86963 23 1.86963C23.8634 1.86963 24.7024 2.12133 25.4011 2.58587L25.6902 2.79847L25.707 2.81068L26.3072 3.28293C29.3728 5.59434 33.3615 7.22312 36.363 7.22312C37.3753 7.22312 38.3465 7.59967 39.0625 8.26873C39.7782 8.93787 40.1808 9.84586 40.181 10.7921V23.2837Z" fill="#19191F"/>
<path d="M21.091 21.4782L21.091 14.3402C21.091 13.3546 21.9457 12.5557 23 12.5557C24.0543 12.5557 24.909 13.3546 24.909 14.3402L24.909 21.4782C24.909 22.4637 24.0543 23.2627 23 23.2627C21.9457 23.2627 21.091 22.4637 21.091 21.4782Z" fill="#19191F"/>
<path d="M23.0187 26.875L23.2144 26.8837C24.1769 26.9751 24.9277 27.7355 24.9277 28.6595C24.9277 29.5835 24.1769 30.3439 23.2144 30.4353L23.0187 30.444H23C21.9457 30.444 21.091 29.6451 21.091 28.6595C21.091 27.6739 21.9457 26.875 23 26.875H23.0187Z" fill="#19191F"/>
</svg>
