<svg width="46" height="43" viewBox="0 0 85 50" fill="none" xmlns="http://www.w3.org/2000/svg">
<path d="M29.375 45.625C29.375 43.9014 29.7145 42.1947 30.3741 40.6023C31.0337 39.0099 32.0005 37.563 33.2192 36.3442C34.438 35.1255 35.8849 34.1587 37.4773 33.4991C39.0697 32.8395 40.7764 32.5 42.5 32.5C44.2236 32.5 45.9303 32.8395 47.5227 33.4991C49.1151 34.1587 50.562 35.1255 51.7808 36.3442C52.9995 37.563 53.9663 39.0099 54.6259 40.6023C55.2855 42.1947 55.625 43.9014 55.625 45.625" stroke="#121619" stroke-width="3" stroke-linejoin="round"/>
<rect x="36.6665" y="20.8335" width="11.6667" height="11.6667" rx="5.83333" stroke="#121619" stroke-width="3" stroke-linejoin="round"/>
<path d="M38.125 41.25H46.875" stroke="#121619" stroke-width="3" stroke-linejoin="round"/>
<path d="M42.5 36.875L42.5 45.625" stroke="#121619" stroke-width="3" stroke-linejoin="round"/>
<path d="M54.375 30.625C54.375 28.9014 54.7145 27.1947 55.3741 25.6023C56.0337 24.0099 57.0005 22.563 58.2192 21.3442C59.438 20.1255 60.8849 19.1587 62.4773 18.4991C64.0697 17.8395 65.7764 17.5 67.5 17.5C69.2236 17.5 70.9303 17.8395 72.5227 18.4991C74.1151 19.1587 75.562 20.1255 76.7808 21.3442C77.9995 22.563 78.9663 24.0099 79.6259 25.6023C80.2855 27.1947 80.625 28.9014 80.625 30.625" stroke="#121619" stroke-width="3" stroke-linejoin="round"/>
<rect x="61.6665" y="5.8335" width="11.6667" height="11.6667" rx="5.83333" stroke="#121619" stroke-width="3" stroke-linejoin="round"/>
<path d="M63.125 26.25H71.875" stroke="#121619" stroke-width="3" stroke-linejoin="round"/>
<path d="M67.5 21.875L67.5 30.625" stroke="#121619" stroke-width="3" stroke-linejoin="round"/>
<path d="M4.375 30.625C4.375 28.9014 4.71449 27.1947 5.37408 25.6023C6.03368 24.0099 7.00046 22.563 8.21923 21.3442C9.438 20.1255 10.8849 19.1587 12.4773 18.4991C14.0697 17.8395 15.7764 17.5 17.5 17.5C19.2236 17.5 20.9303 17.8395 22.5227 18.4991C24.1151 19.1587 25.562 20.1255 26.7808 21.3442C27.9995 22.563 28.9663 24.0099 29.6259 25.6023C30.2855 27.1947 30.625 28.9014 30.625 30.625" stroke="#121619" stroke-width="3" stroke-linejoin="round"/>
<rect x="11.6665" y="5.8335" width="11.6667" height="11.6667" rx="5.83333" stroke="#121619" stroke-width="3" stroke-linejoin="round"/>
<path d="M13.125 26.25H21.875" stroke="#121619" stroke-width="3" stroke-linejoin="round"/>
<path d="M17.5 21.875L17.5 30.625" stroke="#121619" stroke-width="3" stroke-linejoin="round"/>
</svg>
