<svg width="46" height="43" viewBox="0 0 46 43" fill="none" xmlns="http://www.w3.org/2000/svg">
<path d="M5.75 37.625C5.75 35.5074 6.19618 33.4106 7.06308 31.4542C7.92997 29.4979 9.2006 27.7202 10.8024 26.2229C12.4042 24.7256 14.3058 23.5378 16.3987 22.7274C18.4916 21.9171 20.7347 21.5 23 21.5C25.2653 21.5 27.5084 21.9171 29.6013 22.7274C31.6942 23.5378 33.5958 24.7256 35.1976 26.2229C36.7994 27.7203 38.07 29.4979 38.9369 31.4542C39.8038 33.4106 40.25 35.5074 40.25 37.625" stroke="#121619" stroke-width="4" stroke-linejoin="round"/>
<rect x="15.3333" y="7.1665" width="15.3333" height="14.3333" rx="7.16667" stroke="#121619" stroke-width="4" stroke-linejoin="round"/>
<path d="M23 30.4585L23 37.6252" stroke="#121619" stroke-width="4" stroke-linejoin="round"/>
<path d="M30.6667 23.2917C30.6667 25.1924 29.8589 27.0153 28.4212 28.3593C26.9834 29.7033 25.0333 30.4583 23 30.4583C20.9667 30.4583 19.0166 29.7033 17.5789 28.3593C16.1411 27.0153 15.3333 25.1924 15.3333 23.2917" stroke="#121619" stroke-width="4" stroke-linejoin="round"/>
<path d="M15.3333 12.5415H30.6667" stroke="#121619" stroke-width="2" stroke-linejoin="round"/>
</svg>
