<svg width="46" height="43" viewBox="0 0 53 51" fill="none" xmlns="http://www.w3.org/2000/svg">
<path d="M19.9014 6.37509L19.9014 10.6081L33.0984 10.6081V6.37509L19.9014 6.37509ZM37.4974 10.6081C37.4974 12.9459 35.528 14.8411 33.0984 14.8411L19.9014 14.8411C17.4719 14.8411 15.5024 12.9459 15.5024 10.6081L15.5024 6.37509C15.5024 4.03727 17.4719 2.14209 19.9014 2.14209L33.0984 2.14209C35.528 2.14209 37.4974 4.03727 37.4974 6.37509V10.6081Z" fill="#19191F"/>
<path d="M6.70459 42.4322L6.70459 12.8012C6.70459 11.1172 7.40029 9.50264 8.63775 8.31187C9.87521 7.12111 11.5531 6.45166 13.3031 6.45166L17.7021 6.45166C18.9168 6.45166 19.9016 7.39926 19.9016 8.56816C19.9016 9.73706 18.9168 10.6847 17.7021 10.6847L13.3031 10.6847C12.7197 10.6847 12.1605 10.9078 11.748 11.3047C11.3355 11.7017 11.1036 12.2398 11.1036 12.8012L11.1036 42.4322L11.1143 42.6409C11.1642 43.1255 11.387 43.5812 11.748 43.9285C12.1605 44.3256 12.7197 44.5487 13.3031 44.5487L39.6971 44.5487C40.2804 44.5487 40.8397 44.3256 41.2521 43.9285C41.6648 43.5317 41.8966 42.9935 41.8966 42.4322L41.8966 12.8012C41.8966 12.2398 41.6648 11.7017 41.2521 11.3047C40.8912 10.9573 40.4176 10.743 39.914 10.695L39.6971 10.6847L35.2981 10.6847C34.0833 10.6847 33.0986 9.73706 33.0986 8.56816C33.0986 7.39926 34.0833 6.45166 35.2981 6.45166L39.6971 6.45166L40.3501 6.48267C41.8603 6.62714 43.2799 7.27013 44.3624 8.31187C45.5999 9.50264 46.2956 11.1172 46.2956 12.8012L46.2956 42.4322C46.2956 44.1163 45.5999 45.7307 44.3624 46.9215C43.125 48.1122 41.4472 48.7817 39.6971 48.7817L13.3031 48.7817C11.5531 48.7817 9.87521 48.1122 8.63775 46.9215C7.55516 45.8797 6.88695 44.5137 6.73681 43.0606L6.70459 42.4322Z" fill="#19191F"/>
<path d="M35.3246 21.2671C36.5394 21.2671 37.5241 22.2146 37.5241 23.3836C37.5241 24.5525 36.5394 25.5001 35.3246 25.5001L26.5266 25.5001C25.3119 25.5001 24.3271 24.5525 24.3271 23.3836C24.3271 22.2146 25.3119 21.2671 26.5266 21.2671L35.3246 21.2671Z" fill="#19191F"/>
<path d="M35.3246 31.875C36.5394 31.875 37.5241 32.8226 37.5241 33.9915C37.5241 35.1604 36.5394 36.108 35.3246 36.108L26.5266 36.108C25.3119 36.108 24.3271 35.1604 24.3271 33.9915C24.3271 32.8226 25.3119 31.875 26.5266 31.875L35.3246 31.875Z" fill="#19191F"/>
<path d="M17.6971 21.2671L17.9226 21.2775C19.0317 21.3858 19.8966 22.2877 19.8966 23.3836C19.8966 24.4795 19.0317 25.3814 17.9226 25.4897L17.6971 25.5001H17.6756C16.4608 25.5001 15.4761 24.5525 15.4761 23.3836C15.4761 22.2146 16.4608 21.2671 17.6756 21.2671H17.6971Z" fill="#19191F"/>
<path d="M17.6971 31.875L17.9226 31.8854C19.0317 31.9937 19.8966 32.8956 19.8966 33.9915C19.8966 35.0874 19.0317 35.9893 17.9226 36.0976L17.6971 36.108H17.6756C16.4608 36.108 15.4761 35.1604 15.4761 33.9915C15.4761 32.8226 16.4608 31.875 17.6756 31.875H17.6971Z" fill="#19191F"/>
</svg>
