<svg width="32" height="32" viewBox="0 0 42 42" fill="none" xmlns="http://www.w3.org/2000/svg">
<path d="M38.18 20.5648C38.18 11.2722 30.4879 3.73905 20.999 3.73905C11.5102 3.73905 3.818 11.2722 3.818 20.5648C3.818 29.8575 11.5102 37.3905 20.999 37.3905C30.4879 37.3905 38.18 29.8575 38.18 20.5648ZM41.998 20.5648C41.998 31.9224 32.5964 41.1296 20.999 41.1296C9.40158 41.1296 0 31.9224 0 20.5648C0 9.20718 9.40158 0 20.999 0C32.5964 0 41.998 9.20718 41.998 20.5648Z" fill="#171A1F"/>
<path d="M6.12609 5.99942C6.82502 5.31497 7.93033 5.27272 8.68013 5.87162L8.82553 5.99942L16.9202 13.9267L17.0507 14.0672C17.6627 14.8015 17.6192 15.8856 16.9202 16.5703C16.221 17.255 15.1141 17.2976 14.3642 16.6981L14.2207 16.5703L6.12609 8.64304L5.99559 8.50064C5.38405 7.76635 5.42717 6.68389 6.12609 5.99942Z" fill="#171A1F"/>
<path d="M33.3162 5.872C34.066 5.27239 35.1731 5.31507 35.8721 5.9998C36.5708 6.6842 36.614 7.7668 36.0027 8.50102L35.8721 8.64342L27.7776 16.5707C27.0321 17.3006 25.8235 17.3006 25.0781 16.5707C24.3326 15.8406 24.3328 14.6572 25.0781 13.927L33.1726 5.9998L33.3162 5.872Z" fill="#171A1F"/>
<path d="M25.1011 24.5824C25.8001 23.898 26.9054 23.8557 27.6551 24.4545L27.8006 24.5824L35.8951 32.5096L36.0257 32.6502C36.6377 33.3845 36.5942 34.4687 35.8951 35.1533C35.196 35.8379 34.089 35.8805 33.3394 35.2812L33.1958 35.1533L25.1011 27.2261L24.9707 27.0837C24.359 26.3493 24.4022 25.2669 25.1011 24.5824Z" fill="#171A1F"/>
<path d="M14.2209 24.5826C14.9664 23.8528 16.1749 23.8526 16.9203 24.5826C17.6656 25.3127 17.6656 26.4961 16.9203 27.2261L8.82572 35.1535C8.08028 35.8832 6.87173 35.8832 6.12628 35.1535C5.38085 34.4234 5.38099 33.2398 6.12628 32.5098L14.2209 24.5826Z" fill="#171A1F"/>
<path d="M26.726 20.5649C26.726 17.4673 24.162 14.9563 20.999 14.9563C17.836 14.9563 15.272 17.4673 15.272 20.5649C15.272 23.6625 17.836 26.1735 20.999 26.1735C24.162 26.1735 26.726 23.6625 26.726 20.5649ZM30.544 20.5649C30.544 25.7274 26.2705 29.9126 20.999 29.9126C15.7275 29.9126 11.454 25.7274 11.454 20.5649C11.454 15.4024 15.7275 11.2173 20.999 11.2173C26.2705 11.2173 30.544 15.4024 30.544 20.5649Z" fill="#171A1F"/>
</svg>
