<svg width="34" height="34" viewBox="0 0 34 34" fill="none" xmlns="http://www.w3.org/2000/svg">
<path d="M8.50001 19.8333C8.50001 21.0611 8.74792 22.224 9.24376 23.3219C9.73959 24.4198 10.4479 25.3819 11.3688 26.2083C11.3451 26.0903 11.3333 25.984 11.3333 25.8896V25.5708C11.3333 24.8153 11.475 24.1069 11.7583 23.4458C12.0417 22.7847 12.4549 22.1826 12.9979 21.6396L17 17.7083L21.0021 21.6396C21.5451 22.1826 21.9583 22.7847 22.2417 23.4458C22.525 24.1069 22.6667 24.8153 22.6667 25.5708V25.8896C22.6667 25.984 22.6549 26.0903 22.6313 26.2083C23.5521 25.3819 24.2604 24.4198 24.7563 23.3219C25.2521 22.224 25.5 21.0611 25.5 19.8333C25.5 18.6528 25.2816 17.5372 24.8448 16.4865C24.408 15.4358 23.7764 14.4972 22.95 13.6708C22.4778 13.9778 21.9819 14.208 21.4625 14.3615C20.9431 14.5149 20.4118 14.5917 19.8688 14.5917C18.4049 14.5917 17.1358 14.1076 16.0615 13.1396C14.9872 12.1715 14.3674 10.9792 14.2021 9.5625C13.2813 10.3417 12.4667 11.1503 11.7583 11.9885C11.05 12.8267 10.4538 13.6767 9.9698 14.5385C9.48577 15.4003 9.1198 16.2799 8.87188 17.1771C8.62396 18.0743 8.50001 18.9597 8.50001 19.8333ZM17 21.675L14.9813 23.6583C14.7215 23.9181 14.5208 24.2132 14.3792 24.5438C14.2375 24.8743 14.1667 25.2167 14.1667 25.5708C14.1667 26.3264 14.4441 26.9757 14.999 27.5187C15.5538 28.0618 16.2208 28.3333 17 28.3333C17.7792 28.3333 18.4462 28.0618 19.001 27.5187C19.5559 26.9757 19.8333 26.3264 19.8333 25.5708C19.8333 25.1931 19.7625 24.8448 19.6208 24.526C19.4792 24.2073 19.2785 23.9181 19.0188 23.6583L17 21.675ZM17 4.25V8.925C17 9.72778 17.2774 10.4007 17.8323 10.9437C18.3872 11.4868 19.066 11.7583 19.8688 11.7583C20.2938 11.7583 20.6892 11.6698 21.0552 11.4927C21.4212 11.3156 21.7458 11.05 22.0292 10.6958L22.6667 9.91667C24.4139 10.9083 25.7951 12.2896 26.8104 14.0604C27.8257 15.8313 28.3333 17.7556 28.3333 19.8333C28.3333 22.9972 27.2354 25.6771 25.0396 27.8729C22.8438 30.0688 20.1639 31.1667 17 31.1667C13.8361 31.1667 11.1563 30.0688 8.96042 27.8729C6.76459 25.6771 5.66667 22.9972 5.66667 19.8333C5.66667 16.7875 6.68785 13.8951 8.73021 11.1562C10.7726 8.41736 13.5292 6.11528 17 4.25Z" fill="#E2FAFE"/>
</svg>
