<svg width="24" height="24" viewBox="0 0 24 24" fill="none" xmlns="http://www.w3.org/2000/svg">
<rect width="24" height="24" rx="12" fill="#FE814B"/>
<path fill-rule="evenodd" clip-rule="evenodd" d="M8.34723 14.2399C9.3951 13.4358 10.679 13 11.9998 13C13.3206 13 14.6045 13.4358 15.6524 14.2399C16.7002 15.0439 17.4535 16.1713 17.7954 17.4471C17.9383 17.9806 17.6217 18.5289 17.0882 18.6718C16.5548 18.8148 16.0064 18.4982 15.8635 17.9647C15.6356 17.1142 15.1334 16.3626 14.4348 15.8266C13.7363 15.2906 12.8803 15 11.9998 15C11.1193 15 10.2633 15.2905 9.56475 15.8266C8.86618 16.3626 8.364 17.1142 8.1361 17.9647C7.99315 18.4982 7.44482 18.8148 6.91135 18.6718C6.37788 18.5289 6.0613 17.9806 6.20424 17.4471C6.54609 16.1713 7.29937 15.0439 8.34723 14.2399Z" fill="#702901"/>
<path fill-rule="evenodd" clip-rule="evenodd" d="M6 7C6.55228 7 7 7.44772 7 8V11C7 11.5523 6.55228 12 6 12C5.44772 12 5 11.5523 5 11V8C5 7.44772 5.44772 7 6 7Z" fill="#702901"/>
<path fill-rule="evenodd" clip-rule="evenodd" d="M18 7C18.5523 7 19 7.44772 19 8V11C19 11.5523 18.5523 12 18 12C17.4477 12 17 11.5523 17 11V8C17 7.44772 17.4477 7 18 7Z" fill="#702901"/>
</svg>
