<svg width="24" height="24" viewBox="0 0 24 24" fill="none" xmlns="http://www.w3.org/2000/svg">
<rect width="24" height="24" rx="12" fill="#FFCE5C"/>
<path fill-rule="evenodd" clip-rule="evenodd" d="M18 7C18.5523 7 19 7.44772 19 8L19 11C19 11.5523 18.5523 12 18 12C17.4477 12 17 11.5523 17 11L17 8C17 7.44772 17.4477 7 18 7Z" fill="#705600"/>
<path fill-rule="evenodd" clip-rule="evenodd" d="M6 7C6.55228 7 7 7.44772 7 8L7 11C7 11.5523 6.55228 12 6 12C5.44772 12 5 11.5523 5 11L5 8C5 7.44772 5.44772 7 6 7Z" fill="#705600"/>
<path fill-rule="evenodd" clip-rule="evenodd" d="M17.0882 14.3281C17.6217 14.4711 17.9383 15.0194 17.7954 15.5529C17.4535 16.8287 16.7002 17.956 15.6524 18.7601C14.6045 19.5642 13.3206 20 11.9998 20C10.679 20 9.3951 19.5642 8.34723 18.7601C7.29937 17.956 6.54609 16.8287 6.20424 15.5529C6.0613 15.0194 6.37788 14.4711 6.91135 14.3281C7.44482 14.1852 7.99315 14.5018 8.1361 15.0353C8.364 15.8858 8.86618 16.6374 9.56475 17.1734C10.2633 17.7094 11.1193 18 11.9998 18C12.8803 18 13.7363 17.7094 14.4348 17.1734C15.1334 16.6374 15.6356 15.8858 15.8635 15.0353C16.0064 14.5018 16.5548 14.1852 17.0882 14.3281Z" fill="#705600"/>
</svg>
