<svg width="24" height="24" viewBox="0 0 24 24" fill="none" xmlns="http://www.w3.org/2000/svg">
<rect width="24" height="24" rx="12" fill="#BDA193"/>
<path fill-rule="evenodd" clip-rule="evenodd" d="M18 7C18.5523 7 19 7.44772 19 8L19 11C19 11.5523 18.5523 12 18 12C17.4477 12 17 11.5523 17 11L17 8C17 7.44772 17.4477 7 18 7Z" fill="#4B3425"/>
<path fill-rule="evenodd" clip-rule="evenodd" d="M6 7C6.55228 7 7 7.44772 7 8L7 11C7 11.5523 6.55228 12 6 12C5.44772 12 5 11.5523 5 11L5 8C5 7.44772 5.44772 7 6 7Z" fill="#4B3425"/>
<path fill-rule="evenodd" clip-rule="evenodd" d="M5 16C5 15.4477 5.44772 15 6 15H18C18.5523 15 19 15.4477 19 16C19 16.5523 18.5523 17 18 17H6C5.44772 17 5 16.5523 5 16Z" fill="#4B3425"/>
</svg>
