<svg width="44" height="44" viewBox="0 0 44 44" fill="none" xmlns="http://www.w3.org/2000/svg">
<path d="M33 30.25V34.5C33 36.7091 31.2091 38.5 29 38.5H15C12.7909 38.5 11 36.7091 11 34.5V9.5C11 7.29086 12.7909 5.5 15 5.5H29C31.2091 5.5 33 7.29086 33 9.5V13.75" stroke="#E2FAFE" stroke-width="2" stroke-linejoin="round"/>
<path d="M27.5 5.5C27.5 6.22227 27.3577 6.93747 27.0813 7.60476C26.8049 8.27205 26.3998 8.87837 25.8891 9.38909C25.3784 9.89981 24.772 10.3049 24.1048 10.5813C23.4375 10.8577 22.7223 11 22 11C21.2777 11 20.5625 10.8577 19.8952 10.5813C19.228 10.3049 18.6216 9.89981 18.1109 9.38909C17.6002 8.87836 17.1951 8.27205 16.9187 7.60476C16.6423 6.93747 16.5 6.22227 16.5 5.5" stroke="#E2FAFE" stroke-width="2" stroke-linejoin="round"/>
<path d="M20.1667 22C20.1667 23.0878 20.4892 24.1511 21.0936 25.0556C21.6979 25.9601 22.5569 26.665 23.5619 27.0813C24.5669 27.4976 25.6728 27.6065 26.7397 27.3943C27.8066 27.1821 28.7866 26.6582 29.5558 25.8891L40.3333 14.6666" stroke="#E2FAFE" stroke-width="2" stroke-linejoin="round"/>
</svg>
